<mxfile host="app.diagrams.net" modified="2023-05-19T04:01:37.557Z" agent="Mozilla/5.0 (Windows NT 10.0; Win64; x64) AppleWebKit/537.36 (KHTML, like Gecko) Chrome/113.0.0.0 Safari/537.36" version="21.3.2" etag="eFo0lGVodvjV2oXczWfg" type="github">
  <diagram name="페이지-1" id="hswpfj4ctL7NRcdATpn8">
    <mxGraphModel>
      <root>
        <mxCell id="0" />
        <mxCell id="1" parent="0" />
      </root>
    </mxGraphModel>
  </diagram>
</mxfile>
